<?xml version="1.0" encoding="utf-8"?>
<!-- Generator: Adobe Illustrator 17.0.0, SVG Export Plug-In . SVG Version: 6.00 Build 0)  -->
<!DOCTYPE svg PUBLIC "-//W3C//DTD SVG 1.1//EN" "http://www.w3.org/Graphics/SVG/1.1/DTD/svg11.dtd">
<svg version="1.1" id="Layer_1" xmlns="http://www.w3.org/2000/svg" xmlns:xlink="http://www.w3.org/1999/xlink" x="0px" y="0px"
	 width="30px" height="30px" viewBox="0 0 30 30" enable-background="new 0 0 30 30" xml:space="preserve">
<path fill="#FF9933" d="M14.035,28.603c1.021,1.415,2.717,1.302,4.253,1.118c0.063-0.833,0.126-1.666,0.18-2.503
	c0.871,0.511,1.746,1.005,2.637,1.473c0.821-0.419,1.645-0.825,2.478-1.218c-0.293-1.084-0.594-2.164-0.929-3.236
	c1.143,0.31,2.327,0.799,3.529,0.557c0.724-0.569,1.293-1.306,1.917-1.976c-0.331-0.527-0.661-1.055-0.992-1.586
	c0.666-0.276,1.335-0.553,2.005-0.833c0.285-0.816,0.578-1.632,0.887-2.44c-0.795-0.54-1.607-1.046-2.432-1.544
	c0.77-0.506,1.603-0.959,2.231-1.645c0.184-0.938,0.146-1.9,0.197-2.855c-0.812-0.163-1.624-0.326-2.44-0.49
	c0.368-0.712,0.791-1.411,1.03-2.185c-0.025-0.938-0.565-1.775-0.841-2.654c-0.699,0.113-1.394,0.226-2.093,0.335
	c0.084-1.164,0.435-2.557-0.783-3.265c-0.155-0.239-0.461-0.72-0.615-0.963c-0.971,0.515-1.904,1.092-2.8,1.724
	c-0.193-1.005-0.393-2.005-0.619-3.001c-0.866-0.326-1.729-0.67-2.579-1.034c-0.624,0.858-1.239,1.72-1.863,2.579
	c-0.243-0.532-0.49-1.063-0.716-1.603c-0.167-0.389-0.322-0.783-0.469-1.185c-1.126,0.071-2.26,0.105-3.374,0.306
	c-0.197,0.749-0.289,1.519-0.41,2.281C10.577,2.282,9.724,1.83,8.857,1.395C8.066,1.813,7.271,2.22,6.467,2.609
	c0.247,1.113,0.536,2.219,0.875,3.303C6.178,5.526,4.96,5.003,3.709,5.267c-0.707,0.619-1.256,1.39-1.854,2.106
	c0.41,0.502,0.825,0.996,1.235,1.494c-0.732,0.23-1.461,0.461-2.193,0.695c-0.297,0.858-0.645,1.708-0.816,2.604
	c0.691,0.532,1.461,0.946,2.16,1.461c-0.532,0.682-1.411,1.034-2.017,1.653C-0.113,16.221,0.059,17.263,0,18.243
	c0.816,0.146,1.628,0.293,2.444,0.431c-0.398,0.72-0.862,1.419-1.113,2.206c0.176,0.942,0.666,1.783,1.021,2.662
	c0.661-0.159,1.327-0.318,1.988-0.481c-0.084,0.758-0.201,1.519-0.159,2.281c0.515,0.766,1.201,1.39,1.829,2.064
	c0.846-0.578,1.695-1.159,2.537-1.754c0.155,0.904,0.218,1.833,0.553,2.696c0.799,0.603,1.741,0.967,2.629,1.415
	c0.628-0.921,1.247-1.85,1.867-2.775c0.046,0.18,0.134,0.544,0.176,0.724C13.838,27.933,13.968,28.381,14.035,28.603 M15.525,29.097
	c0.063-0.18,0.188-0.536,0.251-0.716c-1.109-2.411-1.03-5.111-1.39-7.689c-0.494,2.348-0.963,4.764-2.29,6.814
	c0.645-3.043,1.632-6.007,2.114-9.083c-0.486-0.13-0.971-0.264-1.44-0.444c0.892,1.691-0.029,3.608-0.368,5.324
	c-0.31,1.796-1.411,3.491-1.08,5.354c-0.502-0.151-1.009-0.301-1.515-0.452c0.762-1.226,0.506-2.742,0.992-4.056
	c0.368-1.03,0.737-2.064,0.942-3.144c-1.603,1.452-2.708,3.453-4.688,4.458c2.017-2.411,4.027-4.851,5.647-7.555
	c-0.134-0.142-0.406-0.427-0.544-0.565c-1.616,2.943-3.822,5.555-6.12,7.999c0.105,0.23,0.314,0.699,0.419,0.929
	c-0.473-0.352-0.946-0.707-1.415-1.063c0.523-1,1.034-2.043,1.875-2.821c1.055-0.996,2.348-1.746,3.181-2.964
	c-2.072,0.703-3.742,2.348-5.986,2.579c2.708-1.511,5.308-3.215,7.807-5.052l-0.276-0.465c-2.989,1.62-5.521,4.09-8.807,5.132
	c-0.339-0.306-0.645-0.645-0.954-0.979c0.201,0.017,0.603,0.042,0.804,0.054c1.72-1.691,4.119-2.177,6.199-3.24
	c-2.428,0.105-4.847,0.506-7.279,0.239c3.311-0.385,6.572-1.206,9.891-1.457c-0.092-0.879-0.146-1.817,0.234-2.646
	c-3.361-0.85-6.919-0.992-10.113-2.453c0.004-0.251,0.017-0.754,0.021-1.005c1.586,0.293,3.215,0.569,4.634,1.381
	c0.908,0.519,1.892,0.9,2.947,0.975c-1.955-1.406-4.295-2.461-5.626-4.562c2.696,1.917,5.454,3.78,8.468,5.174
	c0.414-0.548,0.896-1.046,1.365-1.561c-1.871-2.704-3.662-5.462-5.266-8.334C8.062,3.312,7.873,3.525,7.777,3.63
	c1.172,2.892,3.282,5.253,4.738,7.982C9.878,9.536,8.162,6.33,7.459,3.086c0.477-0.281,0.959-0.569,1.436-0.858
	c1.549,2.076,2.859,4.278,3.947,6.626c-0.218-2.553-0.548-5.111-0.276-7.681c0.49,0.025,0.975,0.046,1.465,0.063
	c1.436,2.712,1.139,5.827,1.494,8.769c0.452-2.495,0.833-5.09,2.298-7.233c-0.661,2.972-1.549,5.894-2.064,8.899
	c0.406,0.067,0.783,0.209,1.126,0.435c-0.067-1.009-0.138-2.043,0.13-3.039c0.624-2.361,1.067-4.797,2.152-7.011
	c0.255-0.008,0.774-0.025,1.03-0.034c-0.461,1.787-0.766,3.633-1.566,5.316c-0.406,0.85-0.678,1.754-0.816,2.687
	c1.566-2.08,3.152-4.278,5.458-5.588c-2.089,2.47-4.508,4.789-5.856,7.777c0.628-0.259,1.176-0.666,1.528-1.256
	c1.419-2.151,2.997-4.228,4.944-5.931c0.356-0.477,0.929-0.193,1.406-0.176c-0.85,0.825-1.448,1.846-2.152,2.784
	c-0.938,0.975-2.197,1.624-2.93,2.8c2.084-0.695,3.813-2.248,6.032-2.566c-2.842,1.603-5.806,3.106-8.221,5.337l0.259,0.594
	c2.616-1.93,5.329-3.726,8.213-5.237c0.23-0.343,0.343-0.816,0.703-1.072c0.209,0.444,0.393,0.896,0.582,1.348
	c-1.704,1.616-3.721,2.771-5.919,3.575c2.407,0.096,4.818-0.029,7.225,0.163c-0.008,0.477-0.013,0.95-0.017,1.423
	c-3.319,1.524-7.032,0.728-10.548,0.892c-0.029,0.234-0.092,0.703-0.126,0.938c0.536,1.059,1.825,1.03,2.83,1.235
	c2.424,0.276,4.78,0.925,7.078,1.729c-0.042-0.255-0.117-0.762-0.155-1.013c1.042,0.439,0.393,1.98-0.641,1.699
	c-1.896,0.31-3.487-0.875-5.245-1.31c1.046,1.042,2.244,1.926,3.194,3.064c-2.612-1.31-4.939-3.127-7.614-4.328
	c-0.297,0.368-0.641,0.678-1.03,0.942c1.072,0.193,2.177,0.364,3.127,0.933c2.168,1.256,4.269,2.633,6.275,4.131
	c0.222-0.067,0.657-0.209,0.879-0.276c-0.335,0.439-0.67,0.883-1.001,1.319c-0.933-0.473-1.888-0.917-2.8-1.44
	c-1.406-0.787-2.394-2.16-3.893-2.817c0.749,2.172,2.327,3.956,2.976,6.17c0.385,0.95-0.632,1.427-1.226,1.913
	c-1.005-1.298-2.118-2.562-2.712-4.115c-0.368-0.938-0.812-1.85-1.444-2.646c0.234,2.164,0.645,4.332,0.314,6.513
	c-0.281-3.06-1.013-6.057-1.863-9.004l-0.691,0.029c0.732,2.809,1.49,5.626,1.775,8.522c0.017,0.758,0.498,1.348,0.892,1.951
	c-0.193-0.071-0.586-0.205-0.783-0.272C16.266,28.875,15.898,28.988,15.525,29.097 M0.87,17.209
	c0.021-0.557,0.034-1.113,0.046-1.674c0.151,0.063,0.452,0.18,0.599,0.239c2.817-0.933,5.793-0.703,8.707-0.686
	c0,0.121,0.004,0.36,0.008,0.481c-1.419,0.234-2.821,0.544-4.24,0.77C4.282,16.619,2.457,16.388,0.87,17.209 M5.266,8.276
	C4.521,7.774,4.001,7.029,3.562,6.263c3.328,0.766,5.885,3.186,7.999,5.735C9.372,10.926,7.246,9.7,5.266,8.276z"/>
<path fill="#FFCC33" d="M15.526,29.093c0.373-0.109,0.741-0.222,1.113-0.335c0.197,0.067,0.59,0.201,0.783,0.272
	c-0.394-0.603-0.875-1.193-0.892-1.951c-0.285-2.897-1.042-5.714-1.775-8.522c-0.138-0.034-0.41-0.105-0.544-0.138
	c-0.481,3.077-1.469,6.04-2.114,9.083c1.327-2.051,1.796-4.466,2.29-6.814c0.36,2.579,0.281,5.278,1.39,7.689
	C15.714,28.557,15.589,28.913,15.526,29.093z"/>
<path fill="#FFCC33" d="M9.807,28.21c0.506,0.151,1.013,0.301,1.515,0.452c-0.331-1.863,0.77-3.558,1.08-5.354
	c0.339-1.716,1.26-3.633,0.368-5.324L12.7,17.913c-1.62,2.704-3.629,5.144-5.647,7.555c1.98-1.005,3.085-3.006,4.688-4.458
	c-0.205,1.08-0.573,2.114-0.942,3.144C10.314,25.469,10.569,26.984,9.807,28.21L9.807,28.21z"/>
<path fill="#FFCC33" d="M18.439,23.674c0.594,1.553,1.708,2.817,2.712,4.115c0.594-0.486,1.612-0.963,1.226-1.913
	c-0.649-2.214-2.227-3.997-2.976-6.17c1.499,0.657,2.486,2.03,3.893,2.817c0.912,0.523,1.867,0.967,2.8,1.44
	c0.331-0.435,0.666-0.879,1.001-1.319c-0.222,0.067-0.657,0.209-0.879,0.276c-2.005-1.499-4.106-2.876-6.275-4.131
	c-0.95-0.569-2.055-0.741-3.127-0.933c-0.444,0.255-0.9,0.481-1.369,0.682c0.85,2.947,1.582,5.944,1.863,9.004
	c0.331-2.181-0.079-4.349-0.314-6.513C17.627,21.824,18.071,22.736,18.439,23.674 M20.043,23.703
	c-0.908-1.888-2.696-3.294-3.273-5.329c1.415,1.076,2.264,2.658,3.206,4.123c0.804,1.319,1.699,2.616,2.122,4.119
	C20.976,26.156,20.762,24.615,20.043,23.703z"/>
<path fill="#FFCC33" d="M20.043,23.698c0.72,0.912,0.933,2.453,2.055,2.913c-0.423-1.503-1.319-2.8-2.122-4.119
	c-0.942-1.465-1.792-3.047-3.206-4.123C17.347,20.404,19.135,21.81,20.043,23.698z"/>
<path fill="#FFCC33" d="M5.04,25.219c0.469,0.356,0.942,0.712,1.415,1.063c-0.105-0.23-0.314-0.699-0.419-0.929
	c2.298-2.444,4.504-5.057,6.12-7.999c-0.059-0.101-0.18-0.297-0.239-0.393c-2.499,1.838-5.098,3.541-7.807,5.052
	c2.244-0.23,3.914-1.875,5.986-2.579c-0.833,1.218-2.126,1.967-3.181,2.964C6.074,23.176,5.563,24.218,5.04,25.219L5.04,25.219z"/>
<path fill="#FFCC33" d="M1.879,20.633c0.31,0.335,0.615,0.674,0.954,0.979C6.119,20.57,8.652,18.1,11.64,16.48l-0.146-0.251
	c-3.319,0.251-6.58,1.072-9.891,1.457c2.432,0.268,4.851-0.134,7.279-0.239c-2.08,1.063-4.479,1.549-6.199,3.24
	C2.482,20.675,2.08,20.649,1.879,20.633z"/>
<path fill="#FFCC33" d="M17.846,16.905c2.675,1.201,5.002,3.018,7.614,4.328c-0.95-1.139-2.147-2.022-3.194-3.064
	c1.758,0.435,3.349,1.62,5.245,1.31c1.034,0.281,1.683-1.26,0.641-1.699c0.038,0.251,0.113,0.758,0.155,1.013
	c-2.298-0.804-4.655-1.452-7.078-1.729c-1.005-0.205-2.294-0.176-2.83-1.235C18.231,16.198,18.042,16.558,17.846,16.905
	L17.846,16.905z"/>
<path fill="#663300" d="M12.772,17.984c0.469,0.18,0.954,0.314,1.44,0.444c0.134,0.034,0.406,0.105,0.544,0.138l0.691-0.029
	c0.469-0.201,0.925-0.427,1.369-0.682c0.389-0.264,0.732-0.574,1.03-0.942c0.197-0.347,0.385-0.707,0.552-1.076
	c0.034-0.234,0.096-0.703,0.126-0.938c-0.067-0.364-0.146-0.728-0.239-1.092l-0.259-0.594c-0.356-0.385-0.741-0.749-1.139-1.101
	c-0.343-0.226-0.72-0.368-1.126-0.435c-0.779-0.071-1.557-0.101-2.336-0.134c-0.469,0.515-0.95,1.013-1.365,1.561
	c-0.084,0.121-0.247,0.368-0.331,0.49c-0.381,0.829-0.326,1.766-0.234,2.646l0.146,0.251l0.276,0.465
	c0.059,0.096,0.18,0.293,0.239,0.393c0.138,0.138,0.41,0.423,0.544,0.565L12.772,17.984 M15.129,16.063
	c-0.699-0.193-1.281-1.059-0.712-1.691c0.599-0.452,1.904-0.603,2.051,0.364C16.656,15.498,15.74,15.925,15.129,16.063z"/>
<path fill="#FFCC33" d="M0.871,17.224c1.586-0.821,3.411-0.59,5.119-0.871c1.419-0.226,2.821-0.536,4.24-0.77
	c-0.004-0.121-0.008-0.36-0.008-0.481c-2.913-0.017-5.889-0.247-8.707,0.686c-0.146-0.059-0.448-0.176-0.599-0.239
	C0.905,16.11,0.892,16.667,0.871,17.224L0.871,17.224z"/>
<path fill="#F18F05" d="M15.129,16.072c0.611-0.138,1.528-0.565,1.339-1.327c-0.146-0.967-1.452-0.816-2.051-0.364
	C13.848,15.012,14.429,15.879,15.129,16.072z"/>
<path fill="#FFCC33" d="M18.523,14.894c3.516-0.163,7.229,0.632,10.548-0.892c0.004-0.473,0.008-0.946,0.017-1.423
	c-2.407-0.193-4.818-0.067-7.225-0.163c2.197-0.804,4.215-1.959,5.919-3.575C27.593,8.39,27.409,7.937,27.2,7.494
	c-0.36,0.255-0.473,0.728-0.703,1.072c-2.884,1.511-5.596,3.307-8.213,5.237C18.376,14.166,18.456,14.53,18.523,14.894z"/>
<path fill="#FFCC33" d="M1.617,11.142c3.194,1.461,6.752,1.603,10.113,2.453c0.084-0.121,0.247-0.368,0.331-0.49
	c-3.014-1.394-5.772-3.257-8.468-5.174c1.331,2.101,3.671,3.156,5.626,4.562c-1.055-0.075-2.039-0.456-2.947-0.975
	c-1.419-0.812-3.047-1.088-4.634-1.381C1.633,10.389,1.621,10.891,1.617,11.142L1.617,11.142z"/>
<path fill="#FFCC33" d="M16.887,12.123c0.398,0.352,0.783,0.716,1.139,1.101c2.415-2.231,5.379-3.734,8.221-5.337
	c-2.219,0.318-3.947,1.871-6.032,2.566c0.732-1.176,1.992-1.825,2.93-2.8c0.703-0.938,1.302-1.959,2.152-2.784
	c-0.477-0.017-1.051-0.301-1.406,0.176c-1.946,1.704-3.524,3.78-4.944,5.931c-0.352,0.59-0.9,0.996-1.528,1.256
	c1.348-2.989,3.767-5.308,5.856-7.777c-2.306,1.31-3.893,3.508-5.458,5.588c0.138-0.933,0.41-1.838,0.816-2.687
	c0.799-1.683,1.105-3.529,1.566-5.316c-0.255,0.008-0.774,0.025-1.03,0.034c-1.084,2.214-1.528,4.651-2.152,7.011
	C16.749,10.081,16.82,11.115,16.887,12.123L16.887,12.123z"/>
<path fill="#FFCC33" d="M5.266,8.273c1.98,1.423,4.106,2.65,6.295,3.721C9.447,9.445,6.89,7.026,3.562,6.26
	C4.001,7.026,4.521,7.771,5.266,8.273z"/>
<path fill="#FFCC33" d="M7.46,3.099c0.703,3.244,2.419,6.45,5.056,8.527C11.06,8.896,8.95,6.536,7.778,3.643
	c0.096-0.105,0.285-0.318,0.381-0.427c1.603,2.871,3.395,5.63,5.266,8.334c0.779,0.034,1.557,0.063,2.336,0.134
	c0.515-3.006,1.402-5.927,2.064-8.899c-1.465,2.143-1.846,4.738-2.298,7.233c-0.356-2.943-0.059-6.057-1.494-8.769
	c-0.49-0.017-0.975-0.038-1.465-0.063c-0.272,2.57,0.059,5.128,0.276,7.681c-1.088-2.348-2.399-4.55-3.947-6.626
	C8.419,2.53,7.938,2.819,7.46,3.099z"/>
</svg>
